<svg width="20" height="20" viewBox="0 0 20 20" fill="none" xmlns="http://www.w3.org/2000/svg">
<path d="M5.95836 13.625L15.7917 3.79171C16.0973 3.48615 16.4861 3.33337 16.9584 3.33337C17.4306 3.33337 17.8195 3.48615 18.125 3.79171C18.4306 4.09726 18.5834 4.48615 18.5834 4.95837C18.5834 5.4306 18.4306 5.81949 18.125 6.12504L7.12503 17.125C6.7917 17.4584 6.40281 17.625 5.95836 17.625C5.51392 17.625 5.12503 17.4584 4.7917 17.125L0.458363 12.7917C0.152808 12.4862 3.05176e-05 12.0973 3.05176e-05 11.625C3.05176e-05 11.1528 0.152808 10.7639 0.458363 10.4584C0.763919 10.1528 1.15281 10 1.62503 10C2.09725 10 2.48614 10.1528 2.7917 10.4584L5.95836 13.625Z" fill="#D62302"/>
</svg>
